# xmcd
#
# Track frame offsets:
#	150
#	14915
#	32256
#	45567
#	57677
#	75889
#	91579
#	104643
#	116826
#	129510
#	145609
#	158401
#	171677
#
# Disc length: 2465 seconds
#
# Revision: 1
# Processed by: cddbd v1.5.1PL0 Copyright (c) Steve Scherf et al.
# Submitted via: audiograbber 1.81.03
#
DISCID=a5099f0d
DTITLE=New West - Simply the West
DYEAR=2005
DGENRE=Country
TTITLE0=What A Fine Mess
TTITLE1=Give Your Broken Heart To Me
TTITLE2=Jezebel
TTITLE3=It Don't Get More Western Than That
TTITLE4=Sad Eyes
TTITLE5=Another Man's Heart
TTITLE6=Trouble's Here
TTITLE7=Ladies Choice
TTITLE8=Pour Me
TTITLE9=Show Me A Woman
TTITLE10=Shania Twang
TTITLE11=Crazy
TTITLE12=The Race Is On
EXTD=NEW WEST - Band of the Year 2003 and 2004
EXTT0=
EXTT1=
EXTT2=
EXTT3=
EXTT4=
EXTT5=
EXTT6=
EXTT7=
EXTT8=
EXTT9=
EXTT10=
EXTT11=
EXTT12=
PLAYORDER=
